PathFileType	4	(X/Y/Z)	Patient4_TMGait_0pt6_01_left_19.trc.trc
DataRate	CameraRate	NumFrames	NumMarkers	Units	OrigDataRate	OrigDataStartFrame	OrigNumFrames
83.333333333333	83.333333333333	6	33	mm	83.333333333333	89	       141
Frame#	Time	Sacral			L.Shoulder			Chest			R.Shoulder			Neck			R.ASIS			L.ASIS			R.Thigh.Superior			R.Thigh.Lateral			R.Thigh.Inferior			R.Patella			L.Thigh.Superior			L.Thigh.Lateral			L.Thigh.Inferior			L.Patella			L.Shank.Superior			L.Shank.Lateral			L.Shank.Inferior			R.Shank.Superior			R.Shank.Lateral			R.Shank.Inferior			R.Heel			R.Midfoot.Superior			R.Midfoot.Lateral			R.Toe			L.Heel			L.Midfoot.Lateral			L.Midfoot.Superior			L.Toe			L.Elbow			L.Wrist			R.Elbow			R.Wrist			
		X1	Y1	Z1	X2	Y2	Z2	X3	Y3	Z3	X4	Y4	Z4	X5	Y5	Z5	X6	Y6	Z6	X7	Y7	Z7	X8	Y8	Z8	X9	Y9	Z9	X10	Y10	Z10	X11	Y11	Z11	X12	Y12	Z12	X13	Y13	Z13	X14	Y14	Z14	X15	Y15	Z15	X16	Y16	Z16	X17	Y17	Z17	X18	Y18	Z18	X19	Y19	Z19	X20	Y20	Z20	X21	Y21	Z21	X22	Y22	Z22	X23	Y23	Z23	X24	Y24	Z24	X25	Y25	Z25	X26	Y26	Z26	X27	Y27	Z27	X28	Y28	Z28	X29	Y29	Z29	X30	Y30	Z30	X31	Y31	Z31	X32	Y32	Z32	X33	Y33	Z33	

89	24.146000000000	744.488838750045	998.034615688213	492.553038443145	911.842359900279	1434.123087812978	323.729084273993	1007.289705290528	1367.911693668973	490.996862637013	906.810789454094	1433.523044942375	658.222076920247	883.703984029232	1491.815827946586	476.609934072996	968.030030512080	940.971544459269	622.612309573240	965.711343333925	959.061872609038	348.304205684316	1032.032103395123	748.578265937731	596.392709452369	958.373222457176	632.308938967638	649.762073587598	1047.807141201752	588.364469271248	576.058863546360	1058.721102249926	497.662165473117	582.661120914932	1003.517261693144	737.906344400882	369.144617273750	916.002541527389	626.547322391017	298.786616941025	998.970460397546	539.176005429651	356.427011863219	988.667508457150	453.865674048095	351.959634341811	919.512794213722	397.106805920803	346.003763001918	779.221912097518	354.518160095667	295.764566619428	764.130989890925	226.956347721508	353.392095666549	1031.208495129626	407.392953734276	586.133800396758	958.979925283001	301.152424579529	639.906894594565	1007.839235502753	207.902285110057	580.764525681974	879.896460995653	43.207299213785	539.982761014816	1047.815093701160	97.599289296371	589.804962624065	956.766720207931	37.394762739157	621.719874076364	1165.135827583323	43.869737754759	628.406506379908	573.295178664009	160.437900156229	391.454082058506	631.662209524441	112.732997187570	313.795399527588	735.282243465957	125.569862417107	334.506534741107	816.667880048895	30.927113940541	313.407185838304	948.708027718985	1082.636635310400	204.181494670538	1153.576193174406	919.671861825004	215.460710822488	822.129552305150	1092.520140711881	761.271516024638	872.695434140413	836.007530386889	769.466069870936	
90	24.158000000000	744.219569310434	998.889084506633	496.313324258814	910.314491387793	1434.739673848637	326.071649955320	1007.296814596528	1368.595804750526	492.530777541880	908.399720292677	1434.201068981954	660.611859174478	883.518873809251	1492.507708393360	479.117476813966	968.480200131732	941.730194476845	624.809922217153	964.833318899195	959.871795096448	350.694165107906	1030.236726974893	747.732821026121	599.542272444729	954.855171503096	632.247614499683	651.859426791882	1043.931414614199	587.607850404789	578.134127917100	1053.709340075904	496.940286253541	584.202999880649	1007.781712635655	740.775860401768	371.847619476454	924.810793216634	627.385778774299	300.620278597518	1010.247394505277	541.916389999152	358.661365229198	1001.346861494928	455.561492691248	353.806494541854	930.630620157277	398.815804754809	347.580531568114	789.037909768769	360.760461160475	297.079548060226	770.111917188260	233.491750700282	354.127512126872	1025.770108715566	406.947001611878	587.464867601016	953.048076696003	300.932409534517	640.875965492174	1001.430901025827	207.626679039739	581.351718189190	872.776313604441	43.207976733178	540.120428572542	1040.707921651328	97.513990412970	590.064452863322	949.609349199940	37.356475764011	621.874265985093	1158.016045796587	43.556708527156	628.657502050945	577.043194973308	175.748474595304	391.492321116658	633.177233123437	125.025646419522	313.811940246326	737.624179984891	131.841789250250	334.845507747448	813.048541848151	30.432442131280	313.481512453155	944.438110115072	1082.166651140441	208.481240810889	1140.169512250340	907.916417999641	217.606805165063	830.568186389457	1091.335869332287	765.269645339424	893.380165164663	837.398730144199	771.525755177123	
91	24.170000000000	743.762230900933	999.695666245313	499.948115624105	908.650937793319	1435.204073062536	328.248254493587	1007.217773279351	1369.117316794398	493.850087792703	910.009484621739	1434.765212564969	662.844139835644	883.333154650295	1493.117721437094	481.439214886991	968.706743272166	942.338135055417	626.858631945681	963.760650419458	960.563995138954	352.921060951070	1028.240819453053	746.889634745773	602.362816856938	951.333018489171	632.189722882136	653.857281626874	1039.925939609129	586.874159414126	580.003436234297	1048.575807420961	496.242262586182	585.644471294677	1011.722656057399	743.875891169788	374.533813012323	933.259188735504	628.646743633830	302.462383022701	1020.966227203345	545.183289195910	361.051458888976	1013.662183840062	457.871004915953	355.913346939044	941.684506296006	400.987561455272	349.337853131380	799.083789382635	366.892456013259	298.516746044518	776.788815951296	239.943429159755	355.094300450857	1020.265272708667	406.509120726559	588.714589539028	947.069764636692	300.715879627720	641.802887843577	994.989095858714	207.351348944276	581.919046567573	865.626550674776	43.225845481046	540.249303613698	1033.571268611985	97.404818731539	590.289567521760	942.423998850904	37.312806649818	622.019464146418	1150.872806269423	43.212723755611	628.897325508751	582.001622751027	189.823195478952	391.762258447076	636.181344503850	136.740221643139	313.985534064423	741.168316437674	138.266636284252	335.407181669528	811.267049401299	30.474225934134	313.539992511680	940.106500426824	1081.569339952386	212.613772380151	1125.741603994504	896.397429430617	219.625760285480	839.241395595330	1090.230441518569	769.242010059176	914.521405558528	839.596173697612	773.489154513580	
92	24.182000000000	743.139787915690	1000.468003395846	503.439779039170	906.898787511381	1435.551228420707	330.257746884052	1007.059208615090	1369.502124209750	494.972496074117	911.618316591900	1435.260593357352	664.908531914578	883.149239874151	1493.675346372914	483.564000132410	968.704227396246	942.823124133069	628.783087453840	962.484353332199	961.164486224073	354.983725228550	1026.092096009502	746.103390532427	604.802073195812	947.854749248639	632.161673022812	655.744844577996	1035.836972046951	586.181491512055	581.660261304284	1043.362360936697	495.585135589665	586.969627836771	1015.268813075449	747.208753682697	377.213773387448	941.224076428963	630.351298822986	304.301935558175	1031.012718458333	548.967726678711	363.521490451267	1025.484718346983	460.793213854206	358.149513544211	952.567514416937	403.607327165092	351.187028491843	809.218624273252	372.740164774018	300.051178762084	784.197360969249	246.059315208012	356.239433391070	1014.734016164662	406.095144394980	589.872789010707	941.078157675730	300.527195348202	642.689405541625	988.528710067917	207.092065522833	582.464864867648	858.447123749575	43.268916524980	540.379735823300	1026.412967015003	97.284611010232	590.492195319584	935.216289370070	37.272106866882	622.158384557593	1143.708808644185	42.857180132146	629.125561509767	588.169627471132	202.000739818502	392.272023762550	640.799875627633	147.280036000089	314.326564605373	746.095784086274	144.524757449248	336.143784492806	811.816885218469	31.140188380355	313.584139974389	935.655567242423	1080.881067532110	216.573115312338	1110.309910790858	885.306816858600	221.521762338699	848.177045341211	1089.245793835869	773.130653303827	936.024023221523	842.681836400904	775.303168731883	
93	24.194000000000	742.380619186644	1001.221973971523	506.785152766315	905.100073144710	1435.822448650010	332.105861213252	1006.825740415520	1369.787346115269	495.922996084836	913.201353533488	1435.738945577200	666.800342769381	882.963613094049	1494.211771112495	485.491339647159	968.474389921673	943.218922895477	630.603773622106	961.000440901226	961.716825368214	356.890344896518	1023.820641312152	745.405807344052	606.851411656026	944.418143306218	632.180780697053	657.512307548889	1031.678937399038	585.537585872317	583.114181849337	1038.079677671481	494.980904973516	588.164764006747	1018.368274192811	750.768223381086	379.885771177746	948.611406243809	632.496374618975	306.119244247214	1040.311254362389	553.236923762912	365.980613129815	1036.714876796185	464.308699118293	360.381555814626	963.205988937649	406.637263375431	353.034446193887	819.338209468952	378.112466438889	301.646195177578	792.401572143822	251.577986596015	357.499399145117	1009.185387208954	405.719462073360	590.933598865670	935.080304166467	300.384833128850	643.535680919160	982.052580308242	206.865119565514	582.988213089985	851.240067686009	43.340837790726	540.519142224774	1019.241140521438	97.166165693622	590.684781864517	927.993572272263	37.239949948236	622.293116430267	1136.527761477527	42.508914996315	629.342188915543	595.567557165829	211.696544364039	393.016038968982	647.148258109438	156.088815494984	314.833623337019	752.590681443420	150.271219010141	336.999936563863	815.147629460896	32.423936845361	313.611729689416	931.011475863552	1080.150519115420	220.354861770315	1093.919963731697	874.833758728947	223.305529174720	857.385640191636	1088.435618582308	776.879298339383	957.797307648197	846.738973540232	776.918791700978	
94	24.206000000000	741.510789287640	1001.975963202379	509.989054649615	903.287400698339	1436.058974627199	333.804211782509	1006.520428159356	1370.014489291090	496.730274436085	914.734731520249	1436.249428609051	668.521490085912	882.768496130504	1494.755017658217	487.231298875384	968.026467578002	943.559576650421	632.332656146077	959.310622477082	962.272523154619	358.654247887902	1021.435219180862	744.807013571017	608.536033181501	940.984799537132	632.257075024339	659.153020608851	1027.440044123421	584.942636706027	584.386537957929	1032.714573586955	494.437541623668	589.223417779893	1020.988723061112	754.536783691048	382.530659090626	955.352395452862	635.053265935886	307.889985690995	1048.815649425481	557.933911059820	368.335797112283	1047.275833048941	468.377845435355	362.491986623802	973.551543544042	410.017596143480	354.795487183061	829.374921494069	382.812005111253	303.258974225933	801.480143201737	256.249614113765	358.809133551880	1003.603223227170	405.393732218777	591.897119238789	929.061772241710	300.300563972738	644.341803610699	975.554252640210	206.684912644032	583.490121009473	844.008301157423	43.441728285931	540.671738764855	1012.063238814351	97.060404977309	590.879060884520	920.763129978458	37.219038108305	622.425311874300	1129.333439152035	42.183017352714	629.547513856537	604.242395703035	218.453169415252	393.976174052060	655.324914909482	162.702147355450	315.493290776547	760.818752399794	155.167803829956	337.917857960050	821.607135416284	34.211516436789	313.612711243943	926.091019824141	1079.430592833154	223.952851022037	1076.652241065459	865.153096100402	224.993346917178	866.858184178345	1087.855779321656	780.437343616591	979.749800864426	851.843757184186	778.294511126859	
